<?xml version="1.0" encoding="UTF-8" standalone="no"?>
<!-- Uploaded to: SVG Repo, www.svgrepo.com, Generator: SVG Repo Mixer Tools -->

<svg
   width="800px"
   height="800px"
   viewBox="0 0 24 24"
   fill="none"
   version="1.1"
   id="svg2"
   sodipodi:docname="lightSun.svg"
   inkscape:version="1.4 (86a8ad7, 2024-10-11)"
   xmlns:inkscape="http://www.inkscape.org/namespaces/inkscape"
   xmlns:sodipodi="http://sodipodi.sourceforge.net/DTD/sodipodi-0.dtd"
   xmlns="http://www.w3.org/2000/svg"
   xmlns:svg="http://www.w3.org/2000/svg">
  <defs
     id="defs2" />
  <sodipodi:namedview
     id="namedview2"
     pagecolor="#ffffff"
     bordercolor="#000000"
     borderopacity="0.25"
     inkscape:showpageshadow="2"
     inkscape:pageopacity="0.0"
     inkscape:pagecheckerboard="0"
     inkscape:deskcolor="#d1d1d1"
     inkscape:zoom="0.96625"
     inkscape:cx="399.48254"
     inkscape:cy="400"
     inkscape:window-width="1920"
     inkscape:window-height="991"
     inkscape:window-x="-9"
     inkscape:window-y="-9"
     inkscape:window-maximized="1"
     inkscape:current-layer="svg2" />
  <path
     d="m 15,12 c 0,1.6569 -1.3431,3 -3,3 -1.6568,0 -2.99996,-1.3431 -2.99996,-3 0,-1.6568 1.34316,-2.99996 2.99996,-2.99996 1.6569,0 3,1.34316 3,2.99996 z"
     stroke="#000000"
     stroke-width="2"
     stroke-linecap="round"
     stroke-linejoin="round"
     id="path1"
     sodipodi:nodetypes="sssss"
     style="stroke:#ffffff;stroke-opacity:1" />
  <path
     d="M 7.64338,5.18899 7.56701,6.10541 C 7.52707,6.58478 7.50709,6.82447 7.40373,7.01167 7.31261,7.1767 7.1767,7.31261 7.01167,7.40373 6.82447,7.50709 6.58477,7.52707 6.10541,7.56701 L 5.18898,7.64338 C 4.16259,7.72892 3.6494,7.77168 3.39642,8.00615 3.17627,8.21018 3.05941,8.50232 3.07812,8.8019 3.09961,9.14615 3.44174,9.53105 4.126,10.3008 l 0.56553,0.6363 c 0.33433,0.3761 0.50149,0.5641 0.56497,0.7764 0.05593,0.1869 0.05593,0.3862 0,0.5731 -0.06348,0.2122 -0.23064,0.4003 -0.56497,0.7764 L 4.126,13.6992 c -0.68426,0.7698 -1.02639,1.1547 -1.04788,1.499 -0.01871,0.2996 0.09815,0.5917 0.3183,0.7957 0.25298,0.2345 0.76617,0.2773 1.79257,0.3628 l 0.91642,0.0764 c 0.47937,0.0399 0.71905,0.0599 0.90626,0.1633 0.16503,0.0911 0.30094,0.227 0.39206,0.392 0.10336,0.1872 0.12334,0.4269 0.16328,0.9063 l 0.07637,0.9164 c 0.08554,1.0264 0.1283,1.5396 0.36277,1.7926 0.20403,0.2201 0.49617,0.337 0.79575,0.3183 0.34425,-0.0215 0.72915,-0.3637 1.4989,-1.0479 l 0.6363,-0.5656 c 0.3761,-0.3343 0.5641,-0.5014 0.7764,-0.5649 0.1869,-0.056 0.3862,-0.056 0.5731,0 0.2122,0.0635 0.4003,0.2306 0.7764,0.5649 l 0.6362,0.5656 c 0.7698,0.6842 1.1547,1.0264 1.499,1.0479 0.2996,0.0187 0.5917,-0.0982 0.7957,-0.3183 0.2345,-0.253 0.2773,-0.7662 0.3628,-1.7926 l 0.0764,-0.9164 c 0.0399,-0.4794 0.0599,-0.7191 0.1633,-0.9063 0.0911,-0.165 0.227,-0.3009 0.392,-0.392 0.1872,-0.1034 0.4269,-0.1234 0.9063,-0.1633 l 0.9164,-0.0764 c 1.0264,-0.0855 1.5396,-0.1283 1.7926,-0.3628 0.2201,-0.204 0.337,-0.4961 0.3183,-0.7957 -0.0215,-0.3443 -0.3637,-0.7292 -1.0479,-1.499 L 19.3085,13.063 c -0.3343,-0.3761 -0.5014,-0.5642 -0.5649,-0.7764 -0.056,-0.1869 -0.056,-0.3862 0,-0.5731 0.0635,-0.2123 0.2306,-0.4003 0.5649,-0.7764 l 0.5656,-0.6363 C 20.5583,9.53105 20.9005,9.14615 20.922,8.8019 20.9407,8.50232 20.8238,8.21018 20.6037,8.00615 20.3507,7.77168 19.8375,7.72892 18.8111,7.64338 L 17.8947,7.56701 C 17.4153,7.52707 17.1756,7.50709 16.9884,7.40373 16.8234,7.31261 16.6875,7.1767 16.5964,7.01167 16.493,6.82446 16.473,6.58478 16.4331,6.10541 L 16.3567,5.18898 C 16.2712,4.16259 16.2284,3.6494 15.9939,3.39642 15.7899,3.17627 15.4978,3.05941 15.1982,3.07812 14.8539,3.09961 14.469,3.44174 13.6992,4.126 L 13.063,4.69153 c -0.3761,0.33433 -0.5642,0.50149 -0.7764,0.56497 -0.1869,0.05593 -0.3862,0.05593 -0.5731,0 C 11.5012,5.19302 11.3132,5.02586 10.9371,4.69153 L 10.3008,4.126 C 9.53105,3.44174 9.14615,3.09961 8.8019,3.07812 8.50232,3.05941 8.21018,3.17627 8.00615,3.39642 7.77168,3.6494 7.72892,4.16259 7.64338,5.18899 Z"
     stroke="#000000"
     stroke-width="2"
     stroke-linecap="round"
     stroke-linejoin="round"
     id="path2"
     sodipodi:nodetypes="ccsscccccccccccccccccscccccccccsccccccscccccccccscccccccccccccccc"
     style="stroke:#ffffff;stroke-opacity:1" />
</svg>
