<?xml version="1.0" encoding="UTF-8" standalone="no"?>
<!-- Uploaded to: SVG Repo, www.svgrepo.com, Generator: SVG Repo Mixer Tools -->

<svg
   width="800px"
   height="800px"
   viewBox="0 0 32 32"
   version="1.1"
   id="svg1"
   sodipodi:docname="plus.svg"
   inkscape:version="1.4 (86a8ad7, 2024-10-11)"
   xmlns:inkscape="http://www.inkscape.org/namespaces/inkscape"
   xmlns:sodipodi="http://sodipodi.sourceforge.net/DTD/sodipodi-0.dtd"
   xmlns="http://www.w3.org/2000/svg"
   xmlns:svg="http://www.w3.org/2000/svg"
   xmlns:sketch="http://www.bohemiancoding.com/sketch/ns">
  <sodipodi:namedview
     id="namedview1"
     pagecolor="#ffffff"
     bordercolor="#000000"
     borderopacity="0.25"
     inkscape:showpageshadow="2"
     inkscape:pageopacity="0.0"
     inkscape:pagecheckerboard="0"
     inkscape:deskcolor="#d1d1d1"
     inkscape:zoom="0.70533901"
     inkscape:cx="511.10175"
     inkscape:cy="231.09455"
     inkscape:window-width="1920"
     inkscape:window-height="991"
     inkscape:window-x="-9"
     inkscape:window-y="-9"
     inkscape:window-maximized="1"
     inkscape:current-layer="Icon-Set" />
  <title
     id="title1">plus-square</title>
  <desc
     id="desc1">Created with Sketch Beta.</desc>
  <defs
     id="defs1" />
  <g
     id="Page-1"
     stroke="none"
     stroke-width="1"
     fill="none"
     fill-rule="evenodd"
     sketch:type="MSPage">
    <g
       id="Icon-Set"
       sketch:type="MSLayerGroup"
       transform="translate(-100.000000, -1035.000000)"
       fill="#000000">
      <path
         d="m 130,1063 c 0,1.1 -0.896,2 -2,2 h -24 c -1.104,0 -2,-0.9 -2,-2 v -24 c 0,-1.1 0.896,-2 2,-2 h 24 c 1.104,0 2,0.9 2,2 z m -2,-28 h -24 c -2.209,0 -4,1.79 -4,4 v 24 c 0,2.21 1.791,4 4,4 h 24 c 2.209,0 4,-1.79 4,-4 v -24 c 0,-2.21 -1.791,-4 -4,-4 z m 0.12,15 H 117 v -11.4 c 0,-0.55 -0.448,-0.8 -1,-0.8 -0.552,0 -1,0.25 -1,0.8 v 11.4 h -11.52 c -0.552,0 -0.8,0.45 -0.8,1 0,0.55 0.248,1 0.8,1 H 115 v 11.2 c 0,0.55 0.448,0.8 1,0.8 0.552,0 1,-0.25 1,-0.8 V 1052 h 11.12 c 0.552,0 0.8,-0.45 0.8,-1 0,-0.55 -0.248,-1 -0.8,-1 z"
         id="plus-square"
         sketch:type="MSShapeGroup"
         sodipodi:nodetypes="ssssssssssssssssssscssscssscssscsss" />
    </g>
  </g>
</svg>
