<?xml version="1.0" encoding="UTF-8" standalone="no"?>
<svg
   aria-hidden="true"
   role="img"
   class="iconify iconify--logos"
   width="31.88"
   height="32"
   preserveAspectRatio="xMidYMid meet"
   viewBox="0 0 256 257"
   version="1.1"
   id="svg6"
   sodipodi:docname="vite.svg"
   inkscape:version="1.4 (86a8ad7, 2024-10-11)"
   xmlns:inkscape="http://www.inkscape.org/namespaces/inkscape"
   xmlns:sodipodi="http://sodipodi.sourceforge.net/DTD/sodipodi-0.dtd"
   xmlns:xlink="http://www.w3.org/1999/xlink"
   xmlns="http://www.w3.org/2000/svg"
   xmlns:svg="http://www.w3.org/2000/svg">
  <sodipodi:namedview
     id="namedview6"
     pagecolor="#ffffff"
     bordercolor="#000000"
     borderopacity="0.25"
     inkscape:showpageshadow="2"
     inkscape:pageopacity="0.0"
     inkscape:pagecheckerboard="0"
     inkscape:deskcolor="#d1d1d1"
     showguides="true"
     inkscape:zoom="12.078125"
     inkscape:cx="6.3337646"
     inkscape:cy="12.087969"
     inkscape:window-width="1920"
     inkscape:window-height="991"
     inkscape:window-x="-9"
     inkscape:window-y="-9"
     inkscape:window-maximized="1"
     inkscape:current-layer="svg6">
    <sodipodi:guide
       position="5.3187813,191.17076"
       orientation="0,-1"
       id="guide6"
       inkscape:locked="false" />
  </sodipodi:namedview>
  <defs
     id="defs5">
    <linearGradient
       id="IconifyId1813088fe1fbc01fb466"
       x1="-2.0007202"
       x2="139.28904"
       y1="48.343501"
       y2="219.34655"
       gradientTransform="matrix(0.53239332,0,0,0.51405283,1.6050375e-4,-15.846251)"
       gradientUnits="userSpaceOnUse">
      <stop
         offset="0%"
         stop-color="#41D1FF"
         id="stop1" />
      <stop
         offset="100%"
         stop-color="#BD34FE"
         id="stop2" />
    </linearGradient>
    <linearGradient
       id="IconifyId1813088fe1fbc01fb467"
       x1="43.376%"
       x2="50.316%"
       y1="2.242%"
       y2="89.03%">
      <stop
         offset="0%"
         stop-color="#FFEA83"
         id="stop3" />
      <stop
         offset="8.333%"
         stop-color="#FFDD35"
         id="stop4" />
      <stop
         offset="100%"
         stop-color="#FFA800"
         id="stop5" />
    </linearGradient>
    <linearGradient
       inkscape:collect="always"
       xlink:href="#IconifyId1813088fe1fbc01fb466"
       id="linearGradient6"
       gradientUnits="userSpaceOnUse"
       gradientTransform="matrix(-0.3702036,0,0,-0.33922197,171.60139,99.544777)"
       x1="-2.0007202"
       y1="48.343501"
       x2="139.28904"
       y2="219.34655" />
    <linearGradient
       inkscape:collect="always"
       xlink:href="#IconifyId1813088fe1fbc01fb466"
       id="linearGradient7"
       gradientUnits="userSpaceOnUse"
       gradientTransform="matrix(0.3702036,0,0,0.33922197,83.545203,149.50119)"
       x1="-2.0007202"
       y1="48.343501"
       x2="139.28904"
       y2="219.34655" />
    <linearGradient
       inkscape:collect="always"
       xlink:href="#IconifyId1813088fe1fbc01fb466"
       id="linearGradient8"
       gradientUnits="userSpaceOnUse"
       gradientTransform="matrix(0,0.35132481,-0.35745041,0,98.266161,79.533646)"
       x1="-2.0007202"
       y1="48.343501"
       x2="139.28904"
       y2="219.34655" />
    <linearGradient
       inkscape:collect="always"
       xlink:href="#IconifyId1813088fe1fbc01fb466"
       id="linearGradient9"
       gradientUnits="userSpaceOnUse"
       gradientTransform="matrix(0,-0.35132481,0.35745041,0,155.49147,171.44918)"
       x1="-2.0007202"
       y1="48.343501"
       x2="139.28904"
       y2="219.34655" />
    <linearGradient
       inkscape:collect="always"
       xlink:href="#IconifyId1813088fe1fbc01fb466"
       id="linearGradient11"
       gradientUnits="userSpaceOnUse"
       gradientTransform="matrix(-0.26550113,0.24173658,-0.24595143,-0.24906012,143.7,83.594473)"
       x1="-2.0007202"
       y1="48.343501"
       x2="139.28904"
       y2="219.34655" />
    <linearGradient
       inkscape:collect="always"
       xlink:href="#IconifyId1813088fe1fbc01fb466"
       id="linearGradient12"
       gradientUnits="userSpaceOnUse"
       gradientTransform="matrix(-0.2480483,-0.25826412,0.26276714,-0.23268805,183.1527,148.19106)"
       x1="-2.0007202"
       y1="48.343501"
       x2="139.28904"
       y2="219.34655" />
    <linearGradient
       inkscape:collect="always"
       xlink:href="#IconifyId1813088fe1fbc01fb466"
       id="linearGradient13"
       gradientUnits="userSpaceOnUse"
       gradientTransform="matrix(0.22584081,-0.27641161,0.28123104,0.21185575,119.5623,174.59422)"
       x1="-2.0007202"
       y1="48.343501"
       x2="139.28904"
       y2="219.34655" />
    <linearGradient
       inkscape:collect="always"
       xlink:href="#IconifyId1813088fe1fbc01fb466"
       id="linearGradient14"
       gradientUnits="userSpaceOnUse"
       gradientTransform="matrix(0.25005769,0.26212428,-0.26050721,0.22913085,83.533938,116.29501)"
       x1="-2.0007202"
       y1="48.343501"
       x2="139.28904"
       y2="219.34655" />
  </defs>
  <path
     fill="url(#IconifyId1813088fe1fbc01fb466)"
     d="m 172.71629,163.1337 -42.02717,77.27098 c -0.86777,1.59546 -3.0971,1.6048 -3.97779,0.0172 L 83.851002,163.14089 c -0.959681,-1.72985 0.479137,-3.8255 2.385905,-3.47478 l 42.072253,7.73185 a 2.2845563,2.348982 0 0 0 0.81149,-9.1e-4 l 41.19225,-7.72006 c 1.90049,-0.35611 3.34593,1.72337 2.40339,3.45681 z"
     id="path5"
     style="fill:url(#linearGradient7);stroke-width:0.355758;stroke-dasharray:none" />
  <path
     fill="url(#IconifyId1813088fe1fbc01fb466)"
     d="M 82.430301,85.912274 124.45747,8.6412934 c 0.86775,-1.5954536 3.09709,-1.6047912 3.97779,-0.017224 l 42.86033,77.2810176 c 0.95968,1.729847 -0.47913,3.825496 -2.3859,3.474787 l -42.07226,-7.731843 a 2.2845563,2.348982 0 0 0 -0.81149,0.0014 l -41.192259,7.71961 c -1.90048,0.356099 -3.345928,-1.723375 -2.40338,-3.456819 z"
     id="path5-2"
     style="fill:url(#linearGradient6);stroke-width:0.355758;stroke-dasharray:none" />
  <path
     fill="url(#IconifyId1813088fe1fbc01fb466)"
     d="M 83.90112,164.1574 2.4778991,124.27343 c -1.68118585,-0.82351 -1.69102525,-2.93915 -0.018149,-3.77494 L 83.893541,79.823849 c 1.82281,-0.910737 4.031065,0.454703 3.66151,2.264233 l -8.147324,39.926758 a 2.4752069,2.1680538 0 0 0 9.5e-4,0.7701 l 8.134426,39.09163 c 0.375235,1.80358 -1.815982,3.17532 -3.642572,2.28083 z"
     id="path5-2-5"
     style="fill:url(#linearGradient8);stroke-width:0.355758;stroke-dasharray:none" />
  <path
     fill="url(#IconifyId1813088fe1fbc01fb466)"
     d="M 69.864464,131.81257 43.980342,47.636425 c -0.534435,-1.738031 1.057617,-3.200604 2.840293,-2.610081 L 133.59129,73.77977 c 1.94249,0.643425 2.43003,3.121589 0.80828,4.109179 L 98.620411,99.684613 c -0.22836,0.138915 -0.42524,0.318597 -0.58132,0.530547 l -23.945033,32.56566 c -1.104796,1.50244 -3.649154,0.91951 -4.230001,-0.96867 z"
     id="path5-2-5-2"
     style="fill:url(#linearGradient11);stroke-width:0.355758;stroke-dasharray:none"
     sodipodi:nodetypes="cccccccccc" />
  <path
     fill="url(#IconifyId1813088fe1fbc01fb466)"
     d="m 169.85652,86.825428 81.42322,39.883972 c 1.6812,0.8235 1.69104,2.93916 0.0181,3.77494 l -81.43379,40.67464 c -1.82281,0.91073 -4.03106,-0.4547 -3.66151,-2.26423 l 8.14732,-39.92676 a 2.4752069,2.1680538 0 0 0 -9.5e-4,-0.77011 l -8.13486,-39.091637 c -0.37523,-1.803559 1.81599,-3.1753 3.64258,-2.280815 z"
     id="path5-2-5-1"
     style="fill:url(#linearGradient9);stroke-width:0.355758;stroke-dasharray:none" />
  <path
     fill="url(#IconifyId1813088fe1fbc01fb466)"
     d="M 133.96516,76.631705 221.98014,52.94726 c 1.8173,-0.48903 3.31826,1.059812 2.67859,2.763208 l -31.1454,82.911162 c -0.69697,1.85608 -3.28435,2.28983 -4.29027,0.71906 l -22.20055,-34.6544 a 2.1997791,2.4395094 58.868405 0 0 -0.54442,-0.56549 L 132.8979,80.679466 c -1.54923,-1.081559 -0.90692,-3.516356 1.06737,-4.047855 z"
     id="path5-2-5-1-6"
     style="fill:url(#linearGradient12);stroke-width:0.355758;stroke-dasharray:none" />
  <path
     fill="url(#IconifyId1813088fe1fbc01fb466)"
     d="m 185.26265,116.52882 38.42285,79.63785 c 0.79333,1.64433 -0.55892,3.31469 -2.41237,2.98076 L 131.0568,182.88435 c -2.01957,-0.36382 -2.87923,-2.7469 -1.42527,-3.95156 l 32.07604,-26.58435 a 2.446255,2.1937132 27.472679 0 0 0.49429,-0.60644 l 18.72889,-35.57752 c 0.86414,-1.6414 3.46991,-1.42193 4.33203,0.36443 z"
     id="path5-2-5-1-6-7"
     style="fill:url(#linearGradient13);stroke-width:0.355758;stroke-dasharray:none" />
  <path
     fill="url(#IconifyId1813088fe1fbc01fb466)"
     d="m 133.29626,188.64121 -87.728288,22.43592 c -1.811379,0.46324 -3.324374,-1.10894 -2.700071,-2.80485 l 30.397917,-82.54767 c 0.680221,-1.84796 3.261451,-2.24472 4.280061,-0.65774 l 22.480411,35.012 a 2.2228515,2.4141882 62.201774 0 0 0.54882,0.57397 l 33.75237,23.95177 c 1.55718,1.1051 0.93657,3.53316 -1.03129,4.03666 z"
     id="path5-8"
     style="fill:url(#linearGradient14);stroke-width:0.355758;stroke-dasharray:none" />
  <ellipse
     style="fill:#4cc3ff;fill-opacity:1;stroke:#61a8ff;stroke-width:0.680043;stroke-linejoin:round;stroke-dasharray:none;stroke-opacity:1"
     id="path9"
     cx="130.33919"
     cy="128.79103"
     rx="55.253471"
     ry="52.435783" />
</svg>
